<svg xmlns="http://www.w3.org/2000/svg" viewBox="0 0 24 24" fill="none">
  <path fill="#f4f4f5" d="M12 3.8c-4.6 0-8.3 3.6-8.3 8.1 0 3.5 2.3 6.5 5.5 7.6.4.1.5-.1.5-.4v-1.5c-2.2.5-2.7-.9-2.7-.9-.3-.9-.8-1.2-.8-1.2-.7-.5.1-.5.1-.5.7 0 1.2.8 1.2.8.7 1.1 1.8.8 2.2.6.1-.5.3-.8.5-1-1.8-.2-3.7-.9-3.7-4 0-.9.3-1.7.9-2.3-.1-.2-.4-1 .1-2.2 0 0 .7-.2 2.4.9a8.8 8.8 0 0 1 4.4 0c1.6-1.1 2.4-.9 2.4-.9.5 1.2.2 2 .1 2.2.6.6.9 1.4.9 2.3 0 3.1-1.9 3.8-3.8 4 .3.2.6.7.6 1.5v2.2c0 .3.1.5.5.4 3.2-1.1 5.5-4.1 5.5-7.6 0-4.5-3.7-8.1-8.3-8.1Z"/>
</svg>
